<?xml version="1.0" encoding="utf-8"?>
<!-- Generator: Adobe Illustrator 25.2.3, SVG Export Plug-In . SVG Version: 6.00 Build 0)  -->
<svg version="1.1" id="Слой_1" xmlns="http://www.w3.org/2000/svg" xmlns:xlink="http://www.w3.org/1999/xlink" x="0px" y="0px"
	 viewBox="0 0 20 20" style="enable-background:new 0 0 20 20;" xml:space="preserve">
<style type="text/css">
	.st0{fill:#A3C596;}
</style>
<path class="st0" d="M20,10c0-5.5-4.5-10-10-10C4.5,0,0,4.5,0,10c0,5.5,4.5,10,10,10C15.5,20,20,15.5,20,10z M9.8,15.4L6.1,5.8
	C5.9,5.3,6.2,4.9,6.9,5.1l0,0l7.7,1.6c0.5,0.1,0.7,0.4,0.4,0.9l-1.8,2.5l1.2,1.2c0.1,0.1,0.2,0.2,0.2,0.5L12,11.7L7.8,7
	c-0.2-0.2-0.3,0-0.1,0.3l3.6,5.7l-0.8,2.5C10.4,16.1,10,16.1,9.8,15.4z"/>
</svg>
