<?xml version="1.0" encoding="utf-8"?>
<!-- Generator: Adobe Illustrator 25.2.3, SVG Export Plug-In . SVG Version: 6.00 Build 0)  -->
<svg version="1.1" id="Слой_1" xmlns="http://www.w3.org/2000/svg" xmlns:xlink="http://www.w3.org/1999/xlink" x="20px" y="20px"
	 viewBox="0 0 20 20" style="enable-background:new 0 0 20 20;" xml:space="preserve">
<style type="text/css">
	.st0{fill:#A3C596;}
</style>
<path class="st0" d="M14,4.2v1.4c0,0.5-0.4,0.7-1.3,1.6c-0.8,0.8-0.9,1.2-0.9,1.4c0,0.3,0.1,0.4,0.5,0.4h1.2c0.3,0,0.5,0.1,0.5,1
	c-0.1,1.8-1.1,3.3-2.5,4.2l0,0c-1.3,1-2.8,1.8-4.5,2.1l-0.1,0c-0.2,0-0.4-0.1-0.4-0.5v-1.4c0-0.3,0.2-0.5,0.5-0.6
	c1.9-0.7,3.7-1.8,3.7-2.3c0-0.2-0.1-0.3-0.5-0.3h-2c-0.9,0.1-1,0.5-1.3,0.5c-0.2,0-0.3-0.2-0.3-0.3c0,0,0,0,0,0v0V9.3
	c0-0.3,0.2-0.4,0.5-0.4h2.7c0.3,0,0.4-0.1,0.4-0.2c0-0.2-0.1-0.3-0.4-0.6C9,7.4,8,6.9,7,6.4L7,6.4C6.7,6.3,6.6,6.1,6.6,5.8
	c0,0,0,0,0,0v0V4.5C6.6,4,6.8,3.9,7.1,4c1.2,0.5,2.2,1.2,3.2,1.9l0,0c0.2,0.1,0.3,0.2,0.6,0c0.2-0.1,0.6-0.6,1-0.9
	c0.5-0.5,1-0.8,1.6-1.1l0,0C13.8,3.7,14,3.9,14,4.2L14,4.2z M0.6,7.1v5.8c0,5.3,1.2,6.5,6.5,6.5h5.8c5.3,0,6.5-1.2,6.5-6.5V7.1
	c0-5.3-1.2-6.5-6.5-6.5H7.1C1.9,0.6,0.6,1.9,0.6,7.1z"/>
</svg>
